<?xml version="1.0" encoding="UTF-8"?>
<svg width="64px" height="60px" viewBox="0 0 64 60" version="1.1" xmlns="http://www.w3.org/2000/svg" xmlns:xlink="http://www.w3.org/1999/xlink">
    <!-- Generator: Sketch 40.3 (33839) - http://www.bohemiancoding.com/sketch -->
    <title>Heavy Rain</title>
    <desc>Created with Sketch.</desc>
    <defs></defs>
    <g id="Dash" stroke="none" stroke-width="1" fill="none" fill-rule="evenodd">
        <g transform="translate(-1037.000000, -220.000000)" id="Weather">
            <g transform="translate(603.000000, 130.000000)">
                <g id="Heavy-Rain" transform="translate(426.500000, 80.000000)">
                    <rect id="Bounds" x="0" y="0" width="80" height="80"></rect>
                    <g id="_1" transform="translate(8.000000, 9.500000)">
                        <g id="Group">
                            <g id="Shape">
                                <path d="M12.26,45.61 L12.04,45.61 C6.67116245,44.6782268 2.28101178,40.8093267 0.681637597,35.6002366 C-0.917736581,30.3911464 0.544891668,24.725237 4.46580424,20.9411833 C8.38671681,17.1571295 14.1009954,15.896641 19.25,17.68 C22.1240794,6.76485657 32.6554402,-0.319275869 43.8487965,1.13312295 C55.0421529,2.58552177 63.4167939,12.1228107 63.41,23.41 C63.4358975,31.1468304 59.440871,38.3416648 52.86,42.41 C52.2414411,42.7965992 51.4265994,42.6085588 51.0400001,41.9899999 C50.6534008,41.3714411 50.8414412,40.5565994 51.46,40.17 C58.9446445,35.4956755 62.4227488,26.4252433 59.9822625,17.9450759 C57.5417762,9.46490844 49.7743325,3.63080454 40.95,3.65 C31.4555978,3.65970463 23.3002457,10.3978285 21.5,19.72 C21.4218569,20.1198159 21.1634826,20.461151 20.7998954,20.6448994 C20.4363082,20.8286477 20.0082475,20.8342206 19.64,20.66 C15.4714599,18.6419628 10.5089872,19.2396781 6.93884927,22.1898163 C3.36871134,25.1399546 1.84642183,29.9008404 3.04264075,34.3750175 C4.23885967,38.8491946 7.93394907,42.2151586 12.5,42.99 C13.176343,43.1089446 13.6485078,43.7266016 13.5858642,44.4104608 C13.5232206,45.09432 12.9466969,45.615914 12.26,45.61 L12.26,45.61 Z" fill-opacity="0.2" fill="#333333"></path>
                                <path d="M16.64,48.86 C16.011687,48.4945045 15.7971039,47.6898179 16.16,47.06 L19.59,41.11 C19.8257953,40.7009308 20.2619149,40.4487306 20.7340768,40.4484007 C21.2062387,40.4480709 21.6427103,40.6996615 21.8790769,41.1084008 C22.1154435,41.5171401 22.1157954,42.0209309 21.88,42.43 L18.41,48.37 C18.048951,48.9842815 17.2655485,49.2011556 16.64,48.86 L16.64,48.86 Z" fill="#6AE2FF"></path>
                                <path d="M25.09,48.86 C24.461687,48.4945045 24.2471039,47.6898179 24.61,47.06 L28.04,41.11 C28.2757953,40.7009308 28.7119149,40.4487306 29.1840768,40.4484007 C29.6562387,40.4480709 30.0927103,40.6996615 30.3290769,41.1084008 C30.5654435,41.5171401 30.5657954,42.0209309 30.33,42.43 L26.9,48.38 C26.7244095,48.6845117 26.434615,48.9064113 26.0948493,48.9965149 C25.7550836,49.0866186 25.3934124,49.0374833 25.09,48.86 L25.09,48.86 Z" fill="#6AE2FF"></path>
                                <path d="M33.54,48.86 C32.911687,48.4945045 32.6971039,47.6898179 33.06,47.06 L36.49,41.11 C36.8545079,40.477634 37.662634,40.2604921 38.295,40.625 C38.927366,40.9895079 39.1445079,41.797634 38.78,42.43 L35.35,48.38 C35.1744095,48.6845117 34.884615,48.9064113 34.5448493,48.9965149 C34.2050836,49.0866186 33.8434124,49.0374833 33.54,48.86 L33.54,48.86 Z" fill="#6AE2FF"></path>
                                <path d="M42,48.86 C41.371687,48.4945045 41.1571039,47.6898179 41.52,47.06 L44.95,41.11 C45.1857953,40.7009308 45.6219149,40.4487306 46.0940768,40.4484007 C46.5662387,40.4480709 47.0027103,40.6996615 47.2390769,41.1084008 C47.4754435,41.5171401 47.4757954,42.0209309 47.24,42.43 L43.81,48.38 C43.6344095,48.6845117 43.344615,48.9064113 43.0048493,48.9965149 C42.6650836,49.0866186 42.3034124,49.0374833 42,48.86 L42,48.86 Z" fill="#6AE2FF"></path>
                                <path d="M15.58,59.95 C14.951687,59.5845045 14.7371039,58.7798179 15.1,58.15 L18.53,52.2 C18.7657953,51.7909308 19.2019149,51.5387306 19.6740768,51.5384007 C20.1462387,51.5380709 20.5827103,51.7896615 20.8190769,52.1984008 C21.0554435,52.6071401 21.0557954,53.1109309 20.82,53.52 L17.41,59.47 C17.2344139,59.7800226 16.9409578,60.0058984 16.5963231,60.0962944 C16.2516885,60.1866903 15.8851471,60.1339286 15.58,59.95 L15.58,59.95 Z" fill="#6AE2FF"></path>
                                <path d="M24.03,59.95 C23.401687,59.5845045 23.1871039,58.7798179 23.55,58.15 L26.98,52.2 C27.2157953,51.7909308 27.6519149,51.5387306 28.1240768,51.5384007 C28.5962387,51.5380709 29.0327103,51.7896615 29.2690769,52.1984008 C29.5054435,52.6071401 29.5057954,53.1109309 29.27,53.52 L25.84,59.47 C25.6644095,59.7745117 25.374615,59.9964113 25.0348493,60.0865149 C24.6950836,60.1766186 24.3334124,60.1274833 24.03,59.95 L24.03,59.95 Z" fill="#6AE2FF"></path>
                                <path d="M32.49,59.95 C31.861687,59.5845045 31.6471039,58.7798179 32.01,58.15 L35.44,52.2 C35.8045079,51.567634 36.612634,51.3504921 37.245,51.715 C37.877366,52.0795079 38.0945079,52.887634 37.73,53.52 L34.3,59.47 C34.1244095,59.7745117 33.834615,59.9964113 33.4948493,60.0865149 C33.1550836,60.1766186 32.7934124,60.1274833 32.49,59.95 L32.49,59.95 Z" fill="#6AE2FF"></path>
                            </g>
                        </g>
                    </g>
                </g>
            </g>
        </g>
    </g>
</svg>