<?xml version="1.0" encoding="UTF-8"?>
<svg width="64px" height="60px" viewBox="0 0 64 60" version="1.1" xmlns="http://www.w3.org/2000/svg" xmlns:xlink="http://www.w3.org/1999/xlink">
    <!-- Generator: Sketch 40.3 (33839) - http://www.bohemiancoding.com/sketch -->
    <title>Lightning</title>
    <desc>Created with Sketch.</desc>
    <defs></defs>
    <g id="Dash" stroke="none" stroke-width="1" fill="none" fill-rule="evenodd">
        <g transform="translate(-1598.000000, -220.000000)" id="Weather">
            <g transform="translate(603.000000, 130.000000)">
                <g id="Lightning" transform="translate(987.500000, 80.000000)">
                    <rect id="Bounds" x="0" y="0" width="80" height="80"></rect>
                    <g id="_2" transform="translate(8.000000, 9.500000)">
                        <g id="Group">
                            <g id="Shape">
                                <path d="M20.36,45.81 L14.55,45.81 C8.80441602,45.8083202 3.60412332,42.407421 1.29940064,37.1443428 C-1.00532203,31.8812647 0.0221927493,25.753184 3.9175584,21.5296943 C7.81292405,17.3062047 13.8380998,15.7875154 19.27,17.66 C22.1562005,6.77249764 32.6632526,-0.290964965 43.8347643,1.14611085 C55.006276,2.58318666 63.383584,12.0758869 63.4203335,23.3393904 C63.457083,34.6028939 55.1418965,44.1500568 43.98,45.66 C43.256507,45.7594113 42.5894113,45.253493 42.49,44.53 C42.3905887,43.806507 42.896507,43.1394113 43.62,43.04 C53.6371774,41.6762956 61.0182595,32.9851522 60.7417228,22.8793588 C60.4651861,12.7735654 52.6198534,4.49908036 42.543089,3.6852302 C32.4663247,2.87138005 23.3947627,9.77957168 21.5,19.71 C21.4227233,20.1125957 21.1627815,20.4564371 20.796508,20.6405532 C20.4302346,20.8246692 19.9992073,20.8281599 19.63,20.65 C15.2377008,18.5375219 9.99964201,19.332446 6.4318471,22.6529423 C2.86405219,25.9734385 1.69555251,31.1410078 3.48761946,35.6734853 C5.27968641,40.2059628 9.66613497,43.177197 14.54,43.16 L20.35,43.16 C20.8233769,43.1582136 21.2617483,43.4091065 21.4999838,43.8181698 C21.7382193,44.2272331 21.7401253,44.7323203 21.5049838,45.1431699 C21.2698423,45.5540195 20.8333769,45.8082137 20.36,45.81 L20.36,45.81 Z" fill-opacity="0.2" fill="#333333"></path>
                                <path d="M26.7,60.32 C26.2072158,60.3016006 25.7657791,60.010056 25.5554017,59.5640558 C25.3450243,59.1180556 25.4007914,58.5919809 25.7,58.2 L35.18,45.79 L26.75,45.79 C26.2460991,45.7799997 25.7918718,45.483932 25.5793194,45.0269445 C25.3667671,44.5699569 25.4329916,44.0318186 25.75,43.64 L31.04,37.03 C31.3307805,36.6498074 31.8045888,36.4568131 32.2782603,36.5256246 C32.7519318,36.5944361 33.1512401,36.9142704 33.3218208,37.3614862 C33.4924016,37.808702 33.407524,38.3132184 33.1,38.68 L29.53,43.14 L37.75,43.14 C38.2836073,43.0986413 38.7893739,43.3835858 39.030478,43.8614102 C39.271582,44.3392346 39.2002964,44.9153523 38.85,45.32 L27.75,59.83 C27.4942245,60.1464304 27.1068134,60.3272222 26.7,60.32 L26.7,60.32 Z" fill="#FBC02D"></path>
                            </g>
                        </g>
                    </g>
                </g>
            </g>
        </g>
    </g>
</svg>