<?xml version="1.0" encoding="UTF-8"?>
<svg width="72px" height="51px" viewBox="0 0 72 51" version="1.1" xmlns="http://www.w3.org/2000/svg" xmlns:xlink="http://www.w3.org/1999/xlink">
    <!-- Generator: Sketch 40.3 (33839) - http://www.bohemiancoding.com/sketch -->
    <title>Overcast 2</title>
    <desc>Created with Sketch.</desc>
    <defs></defs>
    <g id="Dash" stroke="none" stroke-width="1" fill="none" fill-rule="evenodd">
        <g transform="translate(-1220.000000, -225.000000)" id="Weather">
            <g transform="translate(603.000000, 130.000000)">
                <g id="Overcast-2" transform="translate(612.500000, 80.000000)">
                    <rect id="Bounds" x="0" y="0" width="80" height="80"></rect>
                    <g id="_3" transform="translate(3.500000, 14.000000)">
                        <g id="Group">
                            <g id="Shape">
                                <path d="M50.25,51.23 L23.81,51.23 C18.068442,51.2030082 12.8835906,47.7906999 10.5877765,42.5280529 C8.29196242,37.2654058 9.31765705,31.1437653 13.2034665,26.9168632 C17.0892759,22.689961 23.103215,21.1540353 28.54,23 C31.5374471,11.7501579 42.6375034,4.65840098 54.1053422,6.66646172 C65.5731811,8.67452245 73.603102,19.1160087 72.5996337,30.7150038 C71.5961655,42.3139989 61.8923176,51.221277 50.25,51.23 L50.25,51.23 Z M23.83,24.85 C17.3737913,24.85 12.14,30.0837913 12.14,36.54 C12.14,42.9962087 17.3737913,48.23 23.83,48.23 L50.25,48.23 C60.6313363,48.1702102 69.1770009,40.0490469 69.7651924,29.6842146 C70.3533838,19.3193824 62.7813569,10.28356 52.4734348,9.04968029 C42.1655127,7.81580056 32.6747579,14.8091724 30.8,25.02 C30.7247478,25.4272792 30.4667072,25.7774772 30.1,25.97 C29.7340499,26.1490017 29.3059501,26.1490017 28.94,25.97 C27.3361551,25.2151303 25.5825214,24.8322707 23.81,24.85 L23.83,24.85 Z" fill-opacity="0.2" fill="#333333"></path>
                                <path d="M4.81,34.7 C4.32035523,34.7017297 3.86998304,34.4322763 3.64,34 C-1.23235946,24.8801946 0.75750936,13.6116765 8.45866148,6.7121842 C16.1598136,-0.187308109 27.5784485,-0.931521032 36.11,4.91 C36.7119903,5.32145216 36.866452,6.1430096 36.4549999,6.74499994 C36.0435478,7.34699029 35.2219904,7.50145207 34.62,7.09 C27.0917685,1.93410598 17.0148807,2.59048644 10.2191052,8.67940644 C3.42332964,14.7683264 1.66856791,24.7129388 5.97,32.76 C6.18723031,33.1682902 6.17493619,33.6604908 5.93759306,34.0574268 C5.70024992,34.4543627 5.27247855,34.6981337 4.81,34.7 L4.81,34.7 Z" fill="#FFEB3B"></path>
                            </g>
                        </g>
                    </g>
                </g>
            </g>
        </g>
    </g>
</svg>