<?xml version="1.0" encoding="UTF-8"?>
<svg width="65px" height="61px" viewBox="0 0 65 61" version="1.1" xmlns="http://www.w3.org/2000/svg" xmlns:xlink="http://www.w3.org/1999/xlink">
    <!-- Generator: Sketch 40.3 (33839) - http://www.bohemiancoding.com/sketch -->
    <title>Raining</title>
    <desc>Created with Sketch.</desc>
    <defs></defs>
    <g id="Dash" stroke="none" stroke-width="1" fill="none" fill-rule="evenodd">
        <g transform="translate(-1411.000000, -220.000000)" id="Weather">
            <g transform="translate(603.000000, 130.000000)">
                <g id="Raining" transform="translate(800.500000, 80.000000)">
                    <rect id="Bounds" x="0" y="0" width="80" height="80"></rect>
                    <g id="_1" transform="translate(7.500000, 9.500000)">
                        <g id="Group">
                            <g id="Shape">
                                <path d="M13.95,45.7 L13.79,45.7 C8.2434973,45.0941201 3.53948245,41.3533077 1.70016386,36.0857001 C-0.139154729,30.8180925 1.21395594,24.9622812 5.17780726,21.0356204 C9.14165859,17.1089596 15.0099646,15.8111084 20.26,17.7 C22.89095,7.71316914 31.9983968,0.81159381 42.3246002,0.979561894 C52.6508035,1.14752998 61.5289667,8.34166283 63.8337152,18.4087787 C66.1384637,28.4758947 61.2745841,38.8161076 52.05,43.46 C51.6262483,43.6896708 51.111003,43.6701168 50.7058774,43.4089896 C50.3007518,43.1478623 50.0701613,42.6866811 50.1043348,42.2059043 C50.1385083,41.7251275 50.4320124,41.3011989 50.87,41.1 C59.1386963,36.9115541 63.3899449,27.5429589 61.0972206,18.5619882 C58.8044963,9.58101763 50.5827695,3.3966098 41.3182281,3.68417013 C32.0536867,3.97173046 24.2313302,10.6541275 22.5,19.76 C22.4218569,20.1598159 22.1634826,20.501151 21.7998954,20.6848994 C21.4363082,20.8686477 21.0082475,20.8742206 20.64,20.7 C16.404725,18.6533315 11.3595715,19.3079167 7.78682703,22.3676395 C4.21408257,25.4273623 2.7914397,30.3118421 4.16246261,34.8114757 C5.53348552,39.3111093 9.43811305,42.5723881 14.11,43.12 C14.7135788,43.2847716 15.1185679,43.8506408 15.0798414,44.4751064 C15.0411148,45.099572 14.5693124,45.6110666 13.95,45.7 L13.95,45.7 Z" fill-opacity="0.2" fill="#333333"></path>
                                <path d="M20.02,49.49 C19.2909841,49.49 18.7,48.8990159 18.7,48.17 L18.7,41.32 C18.7,40.5909841 19.2909841,40 20.02,40 C20.7490159,40 21.34,40.5909841 21.34,41.32 L21.34,48.19 C21.3290716,48.9111935 20.7412763,49.4900828 20.02,49.49 L20.02,49.49 Z" fill="#6AE2FF"></path>
                                <path d="M28.48,49.49 C27.7509841,49.49 27.16,48.8990159 27.16,48.17 L27.16,41.32 C27.1599999,40.8484094 27.4115905,40.4126416 27.8199999,40.1768463 C28.2284094,39.9410509 28.7315906,39.9410509 29.1400001,40.1768463 C29.5484095,40.4126416 29.8000001,40.8484094 29.8,41.32 L29.8,48.19 C29.7890716,48.9111935 29.2012763,49.4900828 28.48,49.49 L28.48,49.49 Z" fill="#6AE2FF"></path>
                                <path d="M36.93,49.49 C36.2009841,49.49 35.61,48.8990159 35.61,48.17 L35.61,41.32 C35.61,40.5909841 36.2009841,40 36.93,40 C37.6590159,40 38.25,40.5909841 38.25,41.32 L38.25,48.19 C38.2390716,48.9111935 37.6512763,49.4900828 36.93,49.49 L36.93,49.49 Z" fill="#6AE2FF"></path>
                                <path d="M45.38,49.49 C44.6509841,49.49 44.06,48.8990159 44.06,48.17 L44.06,41.32 C44.06,40.5909841 44.6509841,40 45.38,40 C46.1090159,40 46.7,40.5909841 46.7,41.32 L46.7,48.19 C46.6890716,48.9111935 46.1012763,49.4900828 45.38,49.49 L45.38,49.49 Z" fill="#6AE2FF"></path>
                                <path d="M24.25,60.59 C23.5209841,60.59 22.93,59.9990159 22.93,59.27 L22.93,52.4 C22.93,51.6709841 23.5209841,51.08 24.25,51.08 C24.9790159,51.08 25.57,51.6709841 25.57,52.4 L25.57,59.27 C25.57,59.9990159 24.9790159,60.59 24.25,60.59 L24.25,60.59 Z" fill="#6AE2FF"></path>
                                <path d="M32.7,60.59 C31.9709841,60.59 31.38,59.9990159 31.38,59.27 L31.38,52.4 C31.3799999,51.9284094 31.6315905,51.4926416 32.0399999,51.2568463 C32.4484094,51.0210509 32.9515906,51.0210509 33.3600001,51.2568463 C33.7684095,51.4926416 34.0200001,51.9284094 34.02,52.4 L34.02,59.27 C34.02,59.9990159 33.4290159,60.59 32.7,60.59 L32.7,60.59 Z" fill="#6AE2FF"></path>
                                <path d="M41.16,60.59 C40.4309841,60.59 39.84,59.9990159 39.84,59.27 L39.84,52.4 C39.84,51.6709841 40.4309841,51.08 41.16,51.08 C41.8890159,51.08 42.48,51.6709841 42.48,52.4 L42.48,59.27 C42.48,59.9990159 41.8890159,60.59 41.16,60.59 L41.16,60.59 Z" fill="#6AE2FF"></path>
                            </g>
                        </g>
                    </g>
                </g>
            </g>
        </g>
    </g>
</svg>