<?xml version="1.0" encoding="UTF-8"?>
<svg width="59px" height="60px" viewBox="0 0 59 60" version="1.1" xmlns="http://www.w3.org/2000/svg" xmlns:xlink="http://www.w3.org/1999/xlink">
    <!-- Generator: Sketch 40.3 (33839) - http://www.bohemiancoding.com/sketch -->
    <title>Sunny</title>
    <desc>Created with Sketch.</desc>
    <defs></defs>
    <g id="Dash" stroke="none" stroke-width="1" fill="none" fill-rule="evenodd">
        <g transform="translate(-666.000000, -220.000000)" id="Weather">
            <g transform="translate(603.000000, 130.000000)">
                <g id="Sunny" transform="translate(52.500000, 80.000000)">
                    <rect id="Bounds" x="0" y="0" width="80" height="80"></rect>
                    <g id="_10" transform="translate(10.500000, 10.500000)" fill="#FFEB3B">
                        <g id="Group">
                            <g>
                                <path d="M29.31,51.56 C17.0216643,51.56 7.06,41.5983357 7.06,29.31 C7.06,17.0216643 17.0216643,7.06 29.31,7.06 C41.5983357,7.06 51.56,17.0216643 51.56,29.31 C51.5489733,41.5937654 41.5937654,51.5489733 29.31,51.56 L29.31,51.56 Z M29.31,9.69 C18.4686504,9.69 9.68,18.4786504 9.68,29.32 C9.68,40.1613496 18.4686504,48.95 29.31,48.95 C40.1513496,48.95 48.94,40.1613496 48.94,29.32 C48.9289758,18.48322 40.14678,9.7010242 29.31,9.69 L29.31,9.69 Z" id="Shape"></path>
                                <circle id="Oval" cx="29.31" cy="1.57" r="1.57"></circle>
                                <circle id="Oval" cx="29.31" cy="57.05" r="1.57"></circle>
                                <g transform="translate(0.000000, 27.000000)" id="Oval">
                                    <circle cx="57.06" cy="2.31" r="1.57"></circle>
                                    <circle cx="1.57" cy="2.31" r="1.57"></circle>
                                </g>
                                <g transform="translate(7.000000, 7.000000)" id="Oval">
                                    <circle transform="translate(41.937019, 41.904500) rotate(-45.000000) translate(-41.937019, -41.904500) " cx="41.9370186" cy="41.9045" r="1.57"></circle>
                                    <circle transform="translate(2.675388, 2.728719) rotate(-45.010000) translate(-2.675388, -2.728719) " cx="2.6753879" cy="2.72871932" r="1.57"></circle>
                                </g>
                                <g transform="translate(7.000000, 7.000000)" id="Oval">
                                    <circle transform="translate(2.687220, 41.934299) rotate(-45.000000) translate(-2.687220, -41.934299) " cx="2.68721957" cy="41.934299" r="1.57"></circle>
                                    <circle transform="translate(41.950858, 2.625896) rotate(-44.980000) translate(-41.950858, -2.625896) " cx="41.9508584" cy="2.62589571" r="1.57"></circle>
                                </g>
                            </g>
                        </g>
                    </g>
                </g>
            </g>
        </g>
    </g>
</svg>