<?xml version="1.0" encoding="UTF-8"?>
<svg width="64px" height="52px" viewBox="0 0 64 52" version="1.1" xmlns="http://www.w3.org/2000/svg" xmlns:xlink="http://www.w3.org/1999/xlink">
    <!-- Generator: Sketch 40.3 (33839) - http://www.bohemiancoding.com/sketch -->
    <title>Windy</title>
    <desc>Created with Sketch.</desc>
    <defs></defs>
    <g id="Dash" stroke="none" stroke-width="1" fill="none" fill-rule="evenodd">
        <g transform="translate(-851.000000, -224.000000)" id="Weather">
            <g transform="translate(603.000000, 130.000000)">
                <g id="Windy" transform="translate(239.500000, 80.000000)">
                    <rect id="Bounds" x="0" y="0" width="80" height="80"></rect>
                    <g id="_2" transform="translate(7.500000, 14.000000)">
                        <g id="Group">
                            <g id="Shape">
                                <path d="M32.19,35.49 L2.38,35.49 C1.64546128,35.49 1.05,34.8945387 1.05,34.16 C1.05,33.4254613 1.64546128,32.83 2.38,32.83 L32.19,32.83 C34.4322761,32.83 36.25,31.0122761 36.25,28.77 C36.25,26.5277239 34.4322761,24.71 32.19,24.71 C31.4554613,24.71 30.86,24.1145387 30.86,23.38 C30.86,22.6454613 31.4554613,22.05 32.19,22.05 C35.9013535,22.05 38.91,25.0586465 38.91,28.77 C38.91,32.4813535 35.9013535,35.49 32.19,35.49 L32.19,35.49 Z" fill="#607D8B"></path>
                                <path d="M32.19,40.81 L4.51,40.81 C3.77546128,40.81 3.18,40.2145387 3.18,39.48 C3.18,38.7454613 3.77546128,38.15 4.51,38.15 L32.19,38.15 C32.9245387,38.15 33.52,38.7454613 33.52,39.48 C33.52,40.2145387 32.9245387,40.81 32.19,40.81 L32.19,40.81 Z" fill="#607D8B"></path>
                                <path d="M41.77,46.13 L40.71,46.13 C39.9754613,46.13 39.38,45.5345387 39.38,44.8 C39.38,44.0654613 39.9754613,43.47 40.71,43.47 L41.77,43.47 C52.278284,43.4495646 60.9615085,35.2660578 61.6040286,24.7774155 C62.2465488,14.2887731 54.6271233,5.10658793 44.199906,3.8036718 C33.7726887,2.50075568 24.1281217,9.52574652 22.17,19.85 C22.1058205,20.2640979 21.8502374,20.6237331 21.4802769,20.8205206 C21.1103164,21.0173081 20.6692486,21.0282319 20.29,20.85 C18.6844079,20.0865783 16.927835,19.6935707 15.15,19.7 C9.74090061,19.7156052 5.01085679,23.348115 3.6,28.57 C3.40393891,29.2796859 2.6696859,29.6960611 1.96,29.5 C1.2503141,29.3039389 0.833938914,28.5696859 1.03,27.86 C2.09606701,23.9562624 4.72937342,20.6673577 8.30541681,18.7732669 C11.8814602,16.8791762 16.0816901,16.548623 19.91,17.86 C22.8520681,6.48156817 34.0208821,-0.745602107 45.6058351,1.2326145 C57.190788,3.21083111 65.3284754,13.7347296 64.3280264,25.4447073 C63.3275774,37.154685 53.5226266,46.1456435 41.77,46.13 L41.77,46.13 Z" fill-opacity="0.2" fill="#333333"></path>
                                <path d="M32.19,51.32 C31.4554613,51.32 30.86,50.7245387 30.86,49.99 C30.86,49.2554613 31.4554613,48.66 32.19,48.66 C32.6687937,48.702612 33.1306151,48.4712539 33.3831684,48.06226 C33.6357216,47.6532661 33.6357216,47.1367339 33.3831684,46.72774 C33.1306151,46.3187461 32.6687937,46.087388 32.19,46.13 L12.5,46.13 C11.7654613,46.13 11.17,45.5345387 11.17,44.8 C11.17,44.0654613 11.7654613,43.47 12.5,43.47 L32.19,43.47 C33.6395367,43.3968107 35.0114106,44.1284926 35.7581355,45.3730468 C36.5048604,46.6176011 36.5048604,48.1723989 35.7581355,49.4169532 C35.0114106,50.6615074 33.6395367,51.3931893 32.19,51.32 L32.19,51.32 Z" fill="#607D8B"></path>
                            </g>
                        </g>
                    </g>
                </g>
            </g>
        </g>
    </g>
</svg>